HIERARCHY
ROOT root
{
	OFFSET	0	13.1	24.9
	CHANNELS 6  Xposition Yposition Zposition Xrotation Yrotation Zrotation
	JOINT spine_1
	{
		OFFSET	0	9.99999	0
		CHANNELS 3  Xrotation Yrotation Zrotation
		JOINT spine_2
		{
			OFFSET	0	112	-10
			CHANNELS 3  Xrotation Yrotation Zrotation
			JOINT spine_3
			{
				OFFSET	0	206.5	19.3
				CHANNELS 3  Xrotation Yrotation Zrotation
				JOINT spine_4
				{
					OFFSET	0	110.4	14.6
					CHANNELS 3  Xrotation Yrotation Zrotation
					JOINT neck_1
					{
						OFFSET	0	71.8	-50.3
						CHANNELS 3  Xrotation Yrotation Zrotation
						JOINT neck_2
						{
							OFFSET	0	86.2	-25.8
							CHANNELS 3  Xrotation Yrotation Zrotation
							JOINT head_ee
							{
								OFFSET	0	179.8	-8.7
								CHANNELS 3  Xrotation Yrotation Zrotation
								End Site
								{
									OFFSET	1	0	0
								}
							}
						}
					}
					JOINT left_clavicle
					{
						OFFSET	-43.2	22.4	-70.8
						CHANNELS 3  Xrotation Yrotation Zrotation
						JOINT left_shoulder
						{
							OFFSET	-93.9	-5.79999	48.7
							CHANNELS 3  Xrotation Yrotation Zrotation
							JOINT left_elbow
							{
								OFFSET	-291.4	-30.8	15.2
								CHANNELS 3  Xrotation Yrotation Zrotation
								JOINT left_lowarm_twist
								{
									OFFSET	-110.7	-3.89999	13.6
									CHANNELS 3  Xrotation Yrotation Zrotation
									JOINT left_hand
									{
										OFFSET	-110.7	-3.89999	13.6
										CHANNELS 3  Xrotation Yrotation Zrotation
										JOINT left_ee
										{
											OFFSET	-80.8	-5.10001	12.1
											CHANNELS 3  Xrotation Yrotation Zrotation
											End Site
											{
												OFFSET	1	0	0
											}
										}
									}
								}
							}
						}
					}
					JOINT right_clavicle
					{
						OFFSET	43.2	22.4	-70.8
						CHANNELS 3  Xrotation Yrotation Zrotation
						JOINT right_shoulder
						{
							OFFSET	93.9	-5.79999	48.7
							CHANNELS 3  Xrotation Yrotation Zrotation
							JOINT right_elbow
							{
								OFFSET	291.4	-30.8	15.2
								CHANNELS 3  Xrotation Yrotation Zrotation
								JOINT right_lowarm_twist
								{
									OFFSET	110.7	-3.89999	13.6
									CHANNELS 3  Xrotation Yrotation Zrotation
									JOINT right_hand
									{
										OFFSET	110.7	-3.89999	13.6
										CHANNELS 3  Xrotation Yrotation Zrotation
										JOINT right_ee
										{
											OFFSET	80.8	-5.10001	12.1
											CHANNELS 3  Xrotation Yrotation Zrotation
											End Site
											{
												OFFSET	1	0	0
											}
										}
									}
								}
							}
						}
					}
				}
			}
		}
	}
	JOINT left_hip
	{
		OFFSET	-82.8	-127.5	0.300001
		CHANNELS 3  Xrotation Yrotation Zrotation
		JOINT left_knee
		{
			OFFSET	-28.2	-396.7	2.2
			CHANNELS 3  Xrotation Yrotation Zrotation
			JOINT left_ankle
			{
				OFFSET	-11.7	-411.3	35.4
				CHANNELS 3  Xrotation Yrotation Zrotation
				JOINT left_toes
				{
					OFFSET	0	-60	-88.6
					CHANNELS 3  Xrotation Yrotation Zrotation
					JOINT left_foot_ee
					{
						OFFSET	-22.5	-16.5	-42.2
						CHANNELS 3  Xrotation Yrotation Zrotation
						End Site
						{
							OFFSET	1	0	0
						}
					}
				}
			}
		}
	}
	JOINT right_hip
	{
		OFFSET	82.8	-127.5	0.300001
		CHANNELS 3  Xrotation Yrotation Zrotation
		JOINT right_knee
		{
			OFFSET	28.2	-396.7	2.2
			CHANNELS 3  Xrotation Yrotation Zrotation
			JOINT right_ankle
			{
				OFFSET	11.7	-411.3	35.4
				CHANNELS 3  Xrotation Yrotation Zrotation
				JOINT right_toes
				{
					OFFSET	0	-60	-88.6
					CHANNELS 3  Xrotation Yrotation Zrotation
					JOINT right_foot_ee
					{
						OFFSET	22.5	-16.5	-42.2
						CHANNELS 3  Xrotation Yrotation Zrotation
						End Site
						{
							OFFSET	1	0	0
						}
					}
				}
			}
		}
	}
}
MOTION
Frames: 7
Frame Time: 0.02
2800.94 716.97 -1473.77 -23.0421658965 82.1963384993 26.2998020438 3.20927 -0.782032 -4.23227 3.21909 -0.511389 -4.27335 3.25373 0.154124 -4.30103 3.22831 -0.526445 -4.27153 -4.86129 6.89151 9.7044 -4.61062 5.32027 11.0595 -0.0 0.0 -0.0 6.88769 3.07402 13.3549 13.1629 -21.0332 69.1263 3.58541 -60.6039 2.09576 -44.9206 -3.48901 4.39124 -2.19784 -4.57896 -16.9931 -0.0 0.0 -0.0 -4.39644 -12.6007 5.87055 -23.8271 3.8552 -67.8189 0.347411 9.76499 -0.0296768 37.5031 0.225802 4.70101 -4.01079 -28.478 10.627 0.0 0.0 0.0 -16.5562 -0.914647 0.047132 5.8383 -0.284057 -0.850245 41.3322 16.2741 -5.0717 -22.3323 0.0 0.0 -0.0 0.0 -0.0 28.1337 16.1016 -1.08518 3.56987 0.163383 0.523293 -10.3018 -0.387418 -1.55274 -29.8903 0.0 0.0 0.0 0.0 0.0 
2686.80767752 721.194 -1513.52304651 -90.4423363257 87.9013510184 93.7897618755 3.07098 -0.580208 -4.20351 3.08076 -0.311797 -4.23184 3.10059 0.356777 -4.22829 3.07578 -0.314865 -4.23161 0.118016 4.1887 8.02928 0.289753 0.853347 9.08823 -0.0 0.0 -0.0 2.18052 -1.86667 4.04726 5.95772 -20.0952 80.5261 2.53026 -51.4081 1.21811 -48.9161 -3.94531 4.62502 -0.480378 -8.70423 -6.95635 -0.0 0.0 -0.0 -2.78041 -14.2103 2.84739 -16.3381 6.51917 -68.7868 0.516336 14.3476 -0.0649889 39.1095 0.303758 4.89106 -3.79393 -26.3833 10.7311 0.0 0.0 0.0 -17.6222 -1.07153 -1.92028 -3.13419 0.116297 0.466879 36.6391 22.7308 -4.7703 -17.8631 0.0 0.0 -0.0 0.0 -0.0 24.2422 17.006 -3.73101 -8.1559 -0.248894 -1.22588 11.4868 -1.91713 1.63273 -22.0199 0.0 0.0 0.0 0.0 0.0 
2687.42760119 721.194 -1515.26008385 -67.7689070482 87.7328040554 71.1003176136 3.07098 -0.580208 -4.20351 3.08076 -0.311797 -4.23184 3.10059 0.356777 -4.22829 3.07578 -0.314865 -4.23161 0.118016 4.1887 8.02928 0.289753 0.853347 9.08823 -0.0 0.0 -0.0 2.18052 -1.86667 4.04726 5.95772 -20.0952 80.5261 2.53026 -51.4081 1.21811 -48.9161 -3.94531 4.62502 -0.480378 -8.70423 -6.95635 -0.0 0.0 -0.0 -2.78041 -14.2103 2.84739 -16.3381 6.51917 -68.7868 0.516336 14.3476 -0.0649889 39.1095 0.303758 4.89106 -3.79393 -26.3833 10.7311 0.0 0.0 0.0 -17.6222 -1.07153 -1.92028 -3.13419 0.116297 0.466879 36.6391 22.7308 -4.7703 -17.8631 0.0 0.0 -0.0 0.0 -0.0 24.2422 17.006 -3.73101 -8.1559 -0.248894 -1.22588 11.4868 -1.91713 1.63273 -22.0199 0.0 0.0 0.0 0.0 0.0 
2645.99816924 733.445 -1526.87448235 -142.717942672 88.9913979002 145.717725896 2.48816 -0.410893 -3.9355 2.49676 -0.159834 -3.95363 2.50627 0.504219 -3.92465 2.4848 -0.121433 -3.955 -0.168618 1.89906 7.15719 -0.0120534 -2.46699 7.89725 -0.0 0.0 -0.0 1.70978 -3.56088 2.97012 1.39781 -20.0474 81.5431 1.79777 -41.6832 0.684453 -47.8378 -3.82058 4.56507 -0.473164 -5.33843 -5.46047 -0.0 0.0 -0.0 -2.41743 -13.3327 2.40974 -11.8958 8.17932 -70.6831 0.821966 22.1549 -0.16093 39.9686 0.347631 4.99179 -3.98275 -26.4721 11.7471 0.0 0.0 0.0 -12.8663 -0.753328 -3.36709 -15.8813 0.321945 2.4081 36.8912 26.6421 -4.91109 -17.2724 0.0 0.0 -0.0 0.0 -0.0 20.0198 18.4205 -5.41567 -9.41133 -0.271606 -1.41719 23.2436 -0.583256 3.14312 -19.3292 0.0 0.0 0.0 0.0 0.0 
2647.2800079 733.445 -1530.47682315 -48.7902571213 89.187908487 51.7829090639 2.48816 -0.410893 -3.9355 2.49676 -0.159834 -3.95363 2.50627 0.504219 -3.92465 2.4848 -0.121433 -3.955 -0.168618 1.89906 7.15719 -0.0120534 -2.46699 7.89725 -0.0 0.0 -0.0 1.70978 -3.56088 2.97012 1.39781 -20.0474 81.5431 1.79777 -41.6832 0.684453 -47.8378 -3.82058 4.56507 -0.473164 -5.33843 -5.46047 -0.0 0.0 -0.0 -2.41743 -13.3327 2.40974 -11.8958 8.17932 -70.6831 0.821966 22.1549 -0.16093 39.9686 0.347631 4.99179 -3.98275 -26.4721 11.7471 0.0 0.0 0.0 -12.8663 -0.753328 -3.36709 -15.8813 0.321945 2.4081 36.8912 26.6421 -4.91109 -17.2724 0.0 0.0 -0.0 0.0 -0.0 20.0198 18.4205 -5.41567 -9.41133 -0.271606 -1.41719 23.2436 -0.583256 3.14312 -19.3292 0.0 0.0 0.0 0.0 0.0 
2636.68234916 734.054 -1532.64015341 73.3290765932 89.775821141 -70.7507031928 2.22075 -0.339951 -3.7165 2.22842 -0.102939 -3.73058 2.23428 0.540562 -3.69269 2.21526 -0.0489924 -3.73167 -1.19863 0.818827 6.53073 -1.05761 -3.78263 7.03761 -0.0 0.0 -0.0 1.79508 -3.93617 3.10508 0.559062 -19.6428 81.8931 1.56891 -37.8513 0.537971 -47.2693 -3.75528 4.53252 -0.521293 -3.35263 -4.92993 -0.0 0.0 -0.0 -2.25282 -12.2314 2.32697 -9.32455 9.04584 -71.5096 0.971669 25.7027 -0.221679 40.2339 0.361487 5.02277 -4.08754 -26.4038 12.3877 0.0 0.0 0.0 -9.86597 -0.678893 -4.16344 -23.2734 0.242426 3.53876 37.7223 26.8921 -5.00524 -16.9548 0.0 0.0 -0.0 0.0 -0.0 18.56 19.13 -5.66073 -9.81423 -0.278006 -1.47868 27.8503 0.794022 3.68251 -17.7666 0.0 0.0 0.0 0.0 0.0 
2637.43817455 734.054 -1534.70786913 15.2597240056 89.1840157651 -12.6799957796 2.22075 -0.339951 -3.7165 2.22842 -0.102939 -3.73058 2.23428 0.540562 -3.69269 2.21526 -0.0489924 -3.73167 -1.19863 0.818827 6.53073 -1.05761 -3.78263 7.03761 -0.0 0.0 -0.0 1.79508 -3.93617 3.10508 0.559062 -19.6428 81.8931 1.56891 -37.8513 0.537971 -47.2693 -3.75528 4.53252 -0.521293 -3.35263 -4.92993 -0.0 0.0 -0.0 -2.25282 -12.2314 2.32697 -9.32455 9.04584 -71.5096 0.971669 25.7027 -0.221679 40.2339 0.361487 5.02277 -4.08754 -26.4038 12.3877 0.0 0.0 0.0 -9.86597 -0.678893 -4.16344 -23.2734 0.242426 3.53876 37.7223 26.8921 -5.00524 -16.9548 0.0 0.0 -0.0 0.0 -0.0 18.56 19.13 -5.66073 -9.81423 -0.278006 -1.47868 27.8503 0.794022 3.68251 -17.7666 0.0 0.0 0.0 0.0 0.0 
